<?xml version="1.0" encoding="UTF-8" standalone="no"?>
<svg
   height="16px"
   viewBox="0 0 16 16"
   width="16px"
   version="1.1"
   id="svg2"
   sodipodi:docname="circle-x-symbolic.svg"
   inkscape:version="1.4.4 (dcaf3e7d9e, 2026-05-05)"
   xmlns:inkscape="http://www.inkscape.org/namespaces/inkscape"
   xmlns:sodipodi="http://sodipodi.sourceforge.net/DTD/sodipodi-0.dtd"
   xmlns="http://www.w3.org/2000/svg"
   xmlns:svg="http://www.w3.org/2000/svg">
  <defs
     id="defs2" />
  <sodipodi:namedview
     id="namedview2"
     pagecolor="#ffffff"
     bordercolor="#000000"
     borderopacity="0.25"
     inkscape:showpageshadow="2"
     inkscape:pageopacity="0.0"
     inkscape:pagecheckerboard="0"
     inkscape:deskcolor="#d1d1d1"
     inkscape:zoom="43.490844"
     inkscape:cx="6.4726268"
     inkscape:cy="7.8407308"
     inkscape:window-width="1920"
     inkscape:window-height="1008"
     inkscape:window-x="0"
     inkscape:window-y="0"
     inkscape:window-maximized="1"
     inkscape:current-layer="g2" />
  <g
     fill="#222222"
     id="g2">
    <rect
       style="fill:#222222"
       id="rect2"
       width="1.9997854"
       height="12.180535"
       x="10.313816"
       y="-6.0902677"
       ry="0.56567812"
       transform="rotate(45)" />
    <rect
       style="fill:#222222"
       id="rect3"
       width="1.9997854"
       height="12.180535"
       x="-0.99989271"
       y="5.2234406"
       ry="0.56567812"
       transform="matrix(-0.70710678,0.70710678,0.70710678,0.70710678,0,0)" />
    <path
       id="path3"
       style="fill:#222222;stroke-width:0.904942"
       d="M 7.5314165,1.0106632 C 3.5515298,1.1707582 0.26784513,5.2946531 1.0974247,9.2133899 1.7010477,12.916825 5.6756377,15.771391 9.3805669,14.85596 12.649508,14.217257 15.276161,11.014757 14.983137,7.6474121 14.838473,4.4252328 12.249804,1.4510286 9.0060752,1.0815667 8.5195031,1.0004108 8.0233326,0.99669139 7.5314165,1.0106632 Z M 8.021032,3.0481576 C 11.301517,2.9284003 13.954556,6.7337239 12.63237,9.7505359 11.673773,12.342656 8.3730846,13.769073 5.8717356,12.464582 3.5403031,11.390075 2.30498,8.2945306 3.5104704,5.9405223 4.3030299,4.2276538 6.1165594,3.0091538 8.021032,3.0481576 Z" />
  </g>
</svg>
