<?xml version="1.0" encoding="UTF-8" standalone="no"?>
<svg
   height="16"
   viewBox="0 0 16 16"
   width="16"
   version="1.1"
   id="svg2"
   xmlns="http://www.w3.org/2000/svg"
   xmlns:svg="http://www.w3.org/2000/svg">
  <defs
     id="defs2" />
  <g
     fill="#222222"
     id="g2">
    <path
       d="m 1.042969,0 c -0.8125,0 -1.289063,0.917969 -0.8125,1.582031 L 5,8.320312 v 6.636719 c 0,0.742188 0.78125,1.226563 1.445312,0.894531 l 4,-2 C 10.785156,13.679688 11,13.335938 11,12.957031 V 8.320312 L 15.8125,1.582031 C 16.289062,0.917969 15.8125,0 15,0 Z M 2.945312,2 H 13.054688 L 9.183594,7.417969 C 9.0625,7.585938 9,7.792969 9,8 v 4.339844 l -2,1 V 8 C 7,7.792969 6.933594,7.585938 6.8125,7.417969 Z m 0,0"
       id="path1" />
    <path
       d="M 2.810882,1.8989899 6.6710859,7.417969 c 0.125,0.167969 -0.036971,0.4356183 -0.034722,0.6426371 L 6.6969697,13.638968 9.1577102,12.35614 9.1981142,8.0808081 C 9.2020202,7.8737771 9.1837121,7.7879582 9.3048061,7.6199892 L 13.266019,1.8383838 Z"
       fill-opacity="0.34902"
       id="path2"
       style="fill:#222222;fill-opacity:1;stroke:none" />
  </g>
</svg>
